<svg width="680" height="323" xmlns="http://www.w3.org/2000/svg">
 <g>
  <title>Layer 1</title>
  <path d="m25.5519,14.42073c-4.10021,1.05853 -4.10021,2.11706 -4.10021,3.17559c0,1.05853 0,2.11706 0,2.11706c-1.02505,2.11706 -1.02505,3.17559 -1.02505,4.23412c0,1.05853 0,2.11706 0,3.17559c0,1.05853 0,2.11706 0,3.17559c0,1.05853 -0.89964,2.18692 -2.0501,4.23412c-1.85506,3.301 -3.07516,3.17559 -3.07516,5.29265c0,1.05853 0,1.05853 0,2.11706c0,1.05853 0.39227,2.19764 0,3.17559c-0.55475,1.38304 -2.0501,2.11706 -2.0501,4.23412c0,0 1.06903,1.81032 2.0501,2.11706c3.53729,1.10598 5.59556,2.85108 6.15031,4.23412c0.39227,0.97795 0,2.11706 0,2.11706c1.02505,2.11706 1.02505,3.17559 1.02505,4.23412c0,0 0,1.05853 0,2.11706c0,1.05853 -0.30023,1.36857 -1.02505,2.11706c-0.72482,0.74849 0.39227,2.19763 0,3.17559c-0.55475,1.38304 -1.02505,1.05853 -1.02505,2.11706c0,1.05853 0,3.17559 0,3.17559c0,1.05853 0,2.11706 0,3.17559c0,1.05853 0,1.05853 0,2.11706c0,1.05853 -0.30023,1.36857 -1.02505,2.11706c-0.72482,0.74849 0,2.11706 0,4.23412c0,1.05853 0,2.11706 0,3.17559c0,1.05853 0,2.11706 0,3.17559c0,1.05853 0,2.11706 0,3.17559c0,1.05853 0,2.11706 0,4.23412c0,0 0,1.05853 0,2.11706c0,2.11706 0,2.11706 0,4.23412c0,1.05853 0.30023,1.36857 1.02505,2.11706c0.72482,0.74849 1.02505,2.11706 1.02505,3.17559c0,1.05853 0,1.05853 0,1.05853c0,1.05853 1.02505,2.11706 2.0501,3.17559c1.02505,1.05853 0.63278,1.1391 1.02505,2.11706c0.55475,1.38304 1.02505,2.11706 1.02505,3.17559c0,0 0,1.05853 0,2.11706c0,1.05853 0,2.11706 0,2.11706c0,1.05853 0,2.11706 0,4.23412c0,0 0,1.05853 0,2.11706c0,1.05853 0,2.11706 0,2.11706c0,1.05853 0,3.17559 0,4.23412c0,0 0,1.05853 0,2.11706c0,1.05853 0,2.11706 0,2.11706c0,1.05853 0,2.11706 0,3.17559c0,1.05853 -0.39227,2.19764 0,3.17559c0.55475,1.38304 1.02505,2.11706 1.02505,2.11706c0,1.05853 0,2.11706 0,3.17559c0,1.05853 0,2.11706 0,3.17559c0,1.05853 0,2.11706 0,2.11706c0,1.05853 0.63278,2.19764 1.02505,3.17559c0.55475,1.38304 1.49535,0.73402 2.0501,2.11706c0.39227,0.97795 0,2.11706 0,3.17559c0,0 0,1.05853 0,2.11706c0,2.11706 0,2.11706 0,3.17559c0,0 0.63278,1.13911 1.02505,2.11706c0.55475,1.38304 1.49535,0.73402 2.0501,2.11706c0.39227,0.97795 1.02505,2.11706 1.02505,3.17559c0,1.05853 -0.30023,2.4271 -1.02505,3.17559c-0.72482,0.74849 -1.32528,1.36857 -2.0501,2.11706c-0.72482,0.74849 0,2.11706 0,3.17559c0,1.05853 0.39227,2.19764 0,3.17559c-0.55475,1.38304 -1.02505,2.11706 -1.02505,2.11706c-1.02505,3.17559 -2.0501,3.17559 -2.0501,3.17559c-1.02505,1.05853 -1.02505,2.11706 -1.02505,3.17559c0,1.05853 0,1.05853 0,3.17559c0,1.05853 -0.30023,1.36857 -1.02505,2.11706c-0.72482,0.74849 -0.30023,3.48562 -1.02505,4.23412c-0.72482,0.74849 -2.0501,1.05853 -2.0501,2.11706c0,1.05853 -0.4703,1.79255 -1.02505,3.17559c-0.39227,0.97795 0,2.11706 0,3.17559c0,0 -1.02505,1.05853 -1.02505,2.11706c0,1.05853 0,2.11706 0,3.17559c0,1.05853 -0.30023,1.36857 -1.02505,2.11706c-0.72482,0.74849 -0.4703,0.73402 -1.02505,2.11706c-0.39227,0.97795 0,2.11706 0,3.17559c0,0 0.39227,1.13911 0,2.11706c-0.55475,1.38304 -1.49535,1.79255 -2.0501,3.17559c-0.39227,0.97795 0.72482,2.4271 0,3.17559c-0.72482,0.74849 -1.32528,0.31004 -2.0501,1.05853c-1.44964,1.49699 -0.30023,2.4271 -1.02505,3.17559c-0.72482,0.74849 0,1.05853 0,2.11706c0,1.05853 -0.30023,1.36857 -1.02505,2.11706c-0.72482,0.74849 0.72482,3.48562 0,4.23412c-0.72482,0.74849 -0.63278,0.08058 -1.02505,1.05853c-0.55475,1.38304 -0.30023,2.4271 -1.02505,3.17559c-0.72482,0.74849 -1.49535,1.79255 -2.0501,3.17559c-0.39227,0.97795 0,1.05853 0,2.11706c0,1.05855 -1.02505,2.11708 -1.02505,3.17561c0,0 0,1.05853 0,2.11706c0,1.05853 0,2.11706 0,2.11706c0,1.05853 0,2.11706 0,3.17559c0,1.05853 0.78454,2.27822 0,4.23412c-0.55475,1.38302 -1.02505,1.05853 -1.02505,2.11706c0,1.05853 0,2.11706 0,3.17559c0,0 0,1.05853 0,2.11706c0,1.05853 0,2.11706 0,2.11706c0,1.05853 0,3.17559 0,4.23412c0,0 -1.02505,1.05853 -1.02505,2.11706c0,1.05853 0,2.11706 0,2.11706c0,1.05853 -1.02505,2.11706 -1.02505,3.17559c0,1.05853 -1.49535,0.73404 -2.0501,2.11706c-0.39227,0.97796 0,2.11706 0,3.17559c0,0 -0.39227,1.1391 0,2.11706c0.55475,1.38302 2.0501,1.05853 3.07516,1.05853c0,0 1.02505,1.05853 2.0501,1.05853c0,0 1.49535,-0.32449 2.0501,1.05853c0.78454,1.9559 1.10308,1.71197 2.0501,2.11706c1.33929,0.57287 2.0501,1.05853 2.0501,1.05853c0,1.05853 1.49535,0.73404 2.0501,2.11706c0.39227,0.97796 1.32528,0.31005 2.0501,1.05853c0.72482,0.74848 0.30023,0.31005 1.02505,1.05853c0.72482,0.74848 1.02505,1.05853 1.02505,2.11706c0,1.05853 1.02505,1.05853 2.0501,2.11706c0,0 1.02505,0 2.0501,0c1.02505,0 2.0501,0 2.0501,0c1.02505,0 2.0501,0 4.10021,0c0,0 2.0501,0 3.07516,0c1.02505,0 1.02505,0 2.0501,0c1.02505,0 2.0501,0 3.07516,0c3.07516,0 4.10021,0 6.15031,0c2.0501,0 2.0501,0 3.07516,0c0,0 1.02505,0 3.07516,0c1.02505,0 3.07516,0 4.10021,0c2.0501,0 3.07516,0 4.10021,0c2.0501,0 3.07516,0 4.10021,0c1.02505,0 2.0501,0 4.10021,0c1.02505,0 4.18247,0.72961 7.17536,0c2.23077,-0.5438 4.10021,-2.11706 5.12526,-2.11706c0,0 1.02505,0 2.0501,0c1.02505,0 2.0501,0 2.0501,0c1.02505,0 2.0501,0 3.07516,0c1.02505,0 0.93053,-0.52526 5.12526,-1.05853c2.03474,-0.25866 4.10021,0 4.10021,0c0,1.05853 0.71081,1.54418 2.0501,2.11706c0.94703,0.40509 2.0501,0 2.0501,0c1.02505,1.05853 2.0501,1.05853 3.07516,1.05853c1.02505,0 1.62551,-1.49699 3.07516,0c0.72482,0.74848 1.02505,1.05853 2.0501,1.05853c0,0 1.02505,0 3.07516,0c1.02505,0 4.10021,0 5.12526,0c1.02505,0 2.20616,0.81018 4.10021,0c1.3393,-0.57287 4.10021,-2.11706 7.17536,-2.11706c1.02505,0 1.02505,0 2.0501,0c2.0501,0 3.07516,0 4.10021,0c2.0501,0 2.0501,1.05853 3.07516,1.05853c0,0 0,0 1.02505,0c2.0501,0 3.08284,0.12934 4.10021,0c4.19473,-0.53327 4.10021,-2.11706 7.17536,-2.11706c1.02505,0 2.0501,-1.05853 4.10021,-2.11706c0,0 0,0 2.0501,0c1.02505,0 2.0501,0 2.0501,0c1.02505,0 2.0501,0 4.10021,0c0,0 1.10308,-0.40509 2.0501,0c1.3393,0.57287 2.0501,1.05853 2.0501,1.05853c1.02505,1.05853 2.0501,1.05853 4.10021,2.11706c0,0 1.05247,-0.24322 2.0501,0c2.23077,0.5438 2.0501,1.05853 4.10021,1.05853c1.02505,0 2.0501,0 2.0501,0c1.02505,0 2.0501,0 4.10021,0c2.0501,0 2.35033,-1.36858 3.07516,-2.11706c0.72482,-0.74848 2.0501,0 3.07516,0c2.0501,0 2.95067,0.52235 6.15031,1.05853c1.01182,0.16956 2.0501,1.05853 4.10021,1.05853c2.0501,0 4.10021,0 4.10021,0c4.10021,-1.05853 5.12526,-1.05853 7.17536,-1.05853c1.02505,0 1.02505,0 2.0501,0c1.02505,0 2.0501,-1.05853 3.07516,-1.05853c0,0 1.02505,0 3.07516,-1.05853c2.0501,-1.05853 3.07516,-1.05853 4.10021,-1.05853c1.02505,0 1.02505,0 1.02505,0c1.02505,0 2.0501,0 3.07516,0c1.02505,0 2.10494,0.4864 4.10021,0c2.23077,-0.5438 4.10021,-1.05853 5.12526,-2.11706c0,0 2.0501,0 3.07516,0c1.02505,0 0.84438,0.51473 3.07516,1.05853c0.99763,0.24322 2.0501,1.05853 3.07516,1.05853c2.0501,0 3.07516,0 3.07516,0c1.02505,1.05853 2.0501,1.05853 3.07516,1.05853c1.02505,0 2.0501,0 4.10021,0c1.02505,0 2.0501,0 4.10021,0c1.02505,0 1.02505,-1.05853 2.0501,-1.05853c1.02505,0 2.0501,0 3.07516,0c1.02505,0 4.10021,0 4.10021,0c4.10021,0 4.10021,0 6.15031,0c2.0501,0 1.86945,-0.51473 4.10021,-1.05853c2.99288,-0.72961 5.12526,0 6.15031,0c0,0 1.02505,0 2.0501,0c1.02505,0 2.0501,0 2.0501,0c1.02505,0 4.12764,-0.81531 5.12526,-1.05853c2.23076,-0.5438 2.8945,-1.57326 5.12526,-2.11706c0.99762,-0.24322 2.0501,0 2.0501,0c2.0501,0 2.65056,0.43846 4.10021,-1.05853c0.72481,-0.74848 1.02505,-1.05853 2.0501,-1.05853c1.02505,0 2.0501,0 2.0501,0c1.02505,0 3.07516,1.05853 4.10021,2.11706c0,0 1.02505,0 2.0501,0c1.02505,0 2.0501,1.05853 2.0501,1.05853c1.02505,1.05853 2.65056,-0.43846 4.10021,1.05853c0.72481,0.74848 0.71082,1.54418 2.0501,2.11706c1.89404,0.81018 3.78598,1.54418 5.12526,2.11706c0.94703,0.40509 1.02505,0 2.0501,0c1.02505,0 2.0501,0 3.07516,0c0,0 1.02505,0 2.0501,0c1.02505,0 2.0501,0 2.0501,0c1.02505,0 2.0501,0 3.07516,0c1.02505,0 2.0501,0 4.10021,0c1.02505,0 1.02505,0 2.0501,0c1.02505,0 3.22825,0.5565 4.10021,0c1.94975,-1.24437 2.0501,-2.11706 3.07516,-2.11706c0,0 2.12812,0.40509 3.07516,0c1.33928,-0.57287 2.0501,-1.05853 3.07516,-1.05853c1.02505,0 1.73587,-1.54418 3.07516,-2.11706c0.94703,-0.40509 3.11914,-0.75177 4.10021,-1.05853c3.53729,-1.10598 3.78598,-3.66124 5.12526,-4.23412c0.94703,-0.40509 2.0501,0 2.0501,0c0,-1.05853 0.71082,-1.54418 2.0501,-2.11706c0.94703,-0.40509 2.0501,0 2.0501,0c1.02505,0 2.35035,0.31005 3.07516,1.05853c0.72481,0.74848 0.30025,1.36858 1.02505,2.11706c1.44964,1.49699 1.02505,2.11706 2.0501,2.11706c2.0501,0 3.07516,1.05853 5.12526,1.05853c1.02505,0 1.02505,0 2.0501,0c1.02505,0 2.0501,0 4.10021,0c1.02505,0 2.68288,-0.08057 3.07516,-1.05853c0.55476,-1.38302 1.3253,-1.36858 2.0501,-2.11706c0.72481,-0.74848 2.0501,-1.05853 3.07516,-1.05853c1.02505,0 1.02505,-1.05853 2.0501,-1.05853c1.02505,0 1.05152,0.7194 3.07516,1.05853c3.19963,0.53618 4.10021,2.11706 6.15031,3.17559c0,0 0,1.05853 1.02505,1.05853c1.02505,0 2.12812,-0.40509 3.07516,0c1.33928,0.57287 2.0501,1.05853 4.10021,1.05853c0,0 1.02505,1.05853 2.0501,1.05853c1.02505,0 2.0501,1.05853 2.0501,1.05853c1.02505,0 3.07516,0 4.10021,0c1.02505,0 4.10021,-1.05853 5.12526,-1.05853c2.0501,0 3.07516,0 3.07516,0c1.02505,0 2.0501,0 4.10021,0c1.02505,0 3.07516,0 4.10021,-1.05853c1.02505,-1.05853 2.92419,-2.30029 4.10021,-3.17559c1.85944,-1.38399 3.07516,-2.11706 3.07516,-2.11706c1.02505,-1.05853 1.3253,-0.31005 2.0501,-1.05853c0.72481,-0.74848 1.02505,-1.05853 2.0501,-1.05853c1.02505,0 2.20617,0.24835 4.10021,1.05853c1.33928,0.57287 2.5204,0.73404 3.07516,2.11706c0.39228,0.97796 1.02505,2.11706 2.0501,2.11706c0,0 1.02505,0 2.0501,0c4.10021,0 6.15031,0 10.25052,1.05853c0,0 2.0501,0 4.10021,0c1.02505,0 6.15031,0 8.20041,0c0,0 1.02505,0 2.0501,0c1.02505,0 2.36221,1.62032 6.15031,0c1.33928,-0.57287 3.07516,-1.05853 4.10021,-1.05853c1.02505,0 2.0501,0 3.07516,0c1.02505,0 2.0501,0 4.10021,0c1.02505,0 2.0501,1.05853 4.10021,1.05853c1.02508,0 3.1532,-0.40509 4.10024,0c1.33931,0.57287 1.73584,1.54418 3.07516,2.11706c1.89407,0.81018 2.0501,0 3.07516,0c2.0501,0 3.07516,0 4.10021,0c2.0501,0 3.07516,0 4.10021,0c2.0501,0 2.35035,-0.31005 3.07516,-1.05853c0.72481,-0.74848 3.15317,-0.40509 4.10021,0c1.33931,0.57287 2.0501,2.11706 3.07516,2.11706c1.02505,0 1.02505,1.05853 1.02505,1.05853c1.02505,0 2.0501,0 3.07516,0c1.02505,0 1.02505,0 2.0501,0c1.02505,0 1.86942,0.51473 4.10021,1.05853c0.99765,0.24322 3.07516,1.05853 4.10021,1.05853c1.02505,0 3.07516,0 4.10021,0c2.0501,0 3.07516,-1.05853 3.07516,-1.05853c0,-1.05853 1.02505,-1.05853 2.0501,-1.05853c1.02505,0 2.0501,0 2.0501,0c2.0501,0 3.3754,0.74848 4.10021,0c0.72481,-0.74848 0,-2.11706 0,-3.17559c0,-1.05853 1.10307,-0.65344 2.0501,-1.05853c1.33931,-0.57287 2.0501,-1.05853 2.0501,-2.11706c0,0 2.0501,0 3.07516,0c1.02505,0 1.73584,0.48565 3.07516,1.05853c0.94703,0.40509 2.0501,0 2.0501,0c0,1.05853 1.02505,1.05853 2.0501,1.05853c2.0501,0 2.15978,0.9728 6.15031,0c2.23079,-0.5438 4.40045,-1.36858 5.12526,-2.11706c0.72481,-0.74848 2.0501,-1.05853 3.07516,-2.11706c0,0 1.02505,-1.05853 2.0501,-1.05853c1.02505,0 1.3253,-1.36858 2.0501,-2.11706c0.72481,-0.74848 2.0501,-1.05853 3.07516,-1.05853c1.02505,0 2.0501,0 4.10021,0c1.02505,0 1.02505,0 3.07516,0c1.02505,0 1.3253,1.36858 2.0501,2.11706c0.72481,0.74848 1.73584,1.54418 3.07516,2.11706c0.94703,0.40509 2.95078,-2.24547 5.12526,0c0.72481,0.74848 1.10307,0.65344 2.0501,1.05853c1.33931,0.57287 1.73584,1.54418 3.07516,2.11706c1.89407,0.81018 2.35035,0.31005 3.07516,1.05853c0.72481,0.74848 1.02505,0 2.0501,0c1.02505,0 1.51118,0.15809 2.0501,1.05853c1.20505,2.01343 2.12812,1.71197 3.07516,2.11706c1.33931,0.57287 1.02505,1.05853 1.02505,1.05853c1.02505,0 2.0501,0 3.07516,0c1.02505,0 1.02505,0 2.0501,0c1.02505,0 2.0501,0 3.07516,1.05853c0,0 0.84437,0.51473 3.07516,1.05853c0.99765,0.24322 1.10307,-0.40509 2.0501,0c1.33931,0.57287 2.0501,1.05853 3.07516,1.05853c0,0 0.30025,-0.31005 1.02505,-1.05853c0.72481,-0.74848 2.0501,-1.05853 2.0501,-2.11706c0,0 1.02505,0 1.02505,0c1.02505,-1.05853 1.73584,-1.54418 3.07516,-2.11706c0.94703,-0.40509 2.0501,-1.05853 3.07516,-1.05853c1.02505,0 2.0501,0 2.0501,0c0,-1.05853 1.02505,-1.05853 1.02505,-2.11706c0,-1.05853 0,-2.11706 0,-3.17559c0,0 0,-1.05853 0,-2.11706c0,-1.05853 -0.30025,-1.36858 -1.02505,-2.11706c-0.72481,-0.74848 0,-2.11706 0,-3.17559c0,-1.05853 0,-1.05853 0,-2.11706c0,-1.05853 0,-3.17559 0,-3.17559c0,-1.05853 -0.4703,-1.79257 -1.02505,-3.17559c-0.39228,-0.97796 0.30025,-1.36858 1.02505,-2.11706c0.72481,-0.74848 0,-2.11706 0,-3.17559c0,0 0,-1.05853 0,-3.17559c0,-1.05853 0.9247,-1.93122 -1.02505,-3.17559c-0.87196,-0.5565 -0.30025,-1.36858 -1.02505,-2.11706c-0.72481,-0.74848 -1.02505,0 -1.02505,-1.05853c0,-1.05853 0,-3.17559 0,-3.17559c1.02505,-1.05853 1.3253,-1.36858 2.0501,-2.11706c0.72481,-0.74848 0,-2.11706 0,-2.11706c1.02505,0 1.02505,-2.11706 1.02505,-2.11706c0,-1.05853 0,-2.11706 0,-2.11706c0,-1.05853 0,-2.11706 0,-3.17561c0,-1.05853 0.4703,-0.73402 1.02505,-2.11706c0.39228,-0.97795 0,-2.11706 1.02505,-3.17559c0,0 1.02505,0 1.02505,-1.05853c0,-1.05853 1.02505,-1.05853 1.02505,-2.11706c0,-1.05853 0,-1.05853 0,-3.17559c0,-1.05853 0,-2.11706 0,-2.11706c0,-1.05853 0,-2.11706 0,-3.17559c0,-1.05853 0.30025,-1.36857 1.02505,-2.11706c0.72481,-0.74849 1.02505,-1.05853 1.02505,-2.11706c0,-1.05853 0.72481,-1.36857 0,-2.11706c-0.72481,-0.74849 -0.30025,-1.36857 -1.02505,-2.11706c-0.72481,-0.74849 -1.02505,-1.05853 -1.02505,-1.05853c0,-1.05853 0,-3.17559 -1.02505,-4.23412c0,0 0,-1.05853 0,-3.17559c0,-1.05853 0,-1.05853 0,-2.11706c0,-1.05853 0,-2.11706 0,-3.17559c0,0 0,-1.05853 0,-2.11706c0,-1.05853 0,-2.11706 0,-2.11706c0,-1.05853 0,-2.11706 0,-3.17559c0,-1.05853 0,-1.05853 0,-2.11706c0,-1.05853 1.02505,-1.05853 1.02505,-2.11706c0,-1.05853 0,-1.05853 0,-1.05853c0,-1.05853 0,-2.11706 0,-3.17559c0,-1.05853 0,-1.05853 0,-2.11706c0,-1.05853 0,-2.11706 0,-2.11706c-1.02505,-1.05853 -2.20489,0.59846 -4.10021,-2.11706c-0.59936,-0.85873 -0.30025,-1.36857 -1.02505,-2.11706c-0.72481,-0.74849 -1.10307,-0.65344 -2.0501,-1.05853c-1.33931,-0.57287 -1.02505,-2.11706 -1.02505,-2.11706c-1.02505,-2.11706 -2.5204,-1.79255 -3.07516,-3.17559c-0.78456,-1.95591 -0.70992,-3.37248 -2.0501,-5.29265c-0.84762,-1.21441 -1.02505,-2.11706 -1.02505,-2.11706c-1.02505,-1.05853 -1.02505,-2.11706 -1.02505,-3.17559c0,-1.05853 -1.02505,-1.05853 -1.02505,-3.17559c0,-1.05853 0,-2.11706 0,-4.23412c0,-1.05853 0,-2.11706 0,-2.11706c0,-1.05853 0,-2.11706 0,-4.23412c0,0 0,-1.05853 0,-2.11706c0,-1.05853 0,-2.11706 0,-2.11706c0,0 0.78456,-1.21968 0,-3.17559c-0.55476,-1.38304 -1.02505,-1.05853 -1.02505,-2.11706c0,-1.05853 -0.72481,-2.4271 0,-3.17559c0.72481,-0.74849 1.02505,-1.05853 1.02505,-2.11706c0,-1.05853 0,-2.11706 0,-2.11706c0,-1.05853 -0.39228,-2.19764 0,-3.17559c0.55476,-1.38304 1.65783,-1.13911 2.0501,-2.11706c0.55476,-1.38304 1.02505,-2.11706 1.02505,-3.17559c0,0 0,-1.05853 0,-2.11706c0,-1.05853 -0.39228,-2.19764 0,-3.17559c0.55476,-1.38304 1.02505,-2.11706 1.02505,-3.17559c0,0 0,-1.05853 0,-2.11706c0,-1.05853 0,-2.11706 0,-2.11706c0,-1.05853 0,-2.11706 0,-3.17559c0,-1.05853 0,-1.05853 0,-3.17559c0,-1.05853 0.72481,-2.4271 0,-3.17559c-0.72481,-0.74849 -1.3253,-1.36857 -2.0501,-2.11706c-0.72481,-0.74849 0,-2.11706 0,-3.17559c0,-1.05853 0,-2.11706 0,-2.11706c0,-1.05853 0.53893,-2.27515 0,-3.17559c-1.20505,-2.01345 -2.0501,-3.17559 -4.10021,-5.29265c0,0 0,-1.05853 0,-2.11706c0,-1.05853 0,-2.11706 0,-3.17559c0,-1.05853 0,-2.11706 0,-3.17559c0,0 0,-2.11706 0,-3.17559c0,-1.05853 -0.39228,-1.1391 0,-2.11706c0.55476,-1.38304 1.02505,-2.11706 2.0501,-3.17559c0,0 0.18069,-0.54381 -2.0501,0c-1.99523,0.4864 -1.02505,-2.11706 0,-4.23412c0,0 1.02505,0 1.02505,-1.05853c0,-1.05853 1.02505,-3.17559 1.02505,-3.17559c0,-1.05853 0,-2.11706 0,-3.17559c0,-1.05853 0.30025,-1.36857 1.02505,-2.11706c0.72481,-0.74849 1.02505,-2.11706 1.02505,-3.17559c0,0 1.65783,-2.19763 2.0501,-3.17559c0.55476,-1.38304 3.07516,-2.11706 4.10021,-3.17559c1.02505,-1.05853 1.02505,-2.11706 2.0501,-3.17559c1.02505,-1.05853 2.0501,-2.11706 2.0501,-3.17559c0,0 0,0 0,-2.11706c0,-1.05853 0,-2.11706 0,-2.11706c0,-1.05853 0,-2.11706 0,-3.17559c0,-1.05853 0.39228,-1.13911 0,-2.11706c-0.55476,-1.38304 -2.2032,-2.61909 -3.07516,-3.17559c-1.94975,-1.24438 -1.02505,-3.17559 -1.02505,-4.23412c0,-1.05853 0,-2.11706 0,-3.17559c0,-1.05853 -1.02505,-1.05853 -1.02505,-2.11706c0,-1.05853 -1.02505,-2.11706 -1.02505,-3.17559c0,0 0,-1.05853 0,-2.11706c0,-1.05853 0,-2.11706 0,-3.17559c0,-2.11706 0,-3.17559 0,-3.17559c0,-1.05853 0,-2.11706 0,-3.17559c0,-1.05853 -0.23549,-1.08685 0,-2.11706c0.5266,-2.30363 1.02505,-3.17559 2.0501,-3.17559c0,0 0,-1.05853 0,-1.05853c0,-1.05853 1.02505,-2.11706 1.02505,-3.17559c0,0 0.30025,-0.31004 1.02505,-1.05853c0.72481,-0.74849 1.02505,-2.11706 1.02505,-3.17559c0,-1.05853 1.02505,-2.11706 1.02505,-3.17559c0,-1.05853 0.72481,-1.36857 0,-2.11706c-0.72481,-0.74849 -2.0501,0 -3.07516,0c-1.02505,0 -1.3253,-0.74849 -2.0501,0c-0.72481,0.74849 -1.02505,1.05853 -2.0501,1.05853c-1.02505,0 -0.71079,0.48566 -2.0501,1.05853c-0.94703,0.40508 -1.02505,1.05853 -2.0501,1.05853c-1.02505,0 -2.0501,0 -3.07516,0c-1.02505,0 -1.86942,-1.57325 -4.10021,-2.11706c-1.99523,-0.4864 -2.0501,0 -3.07516,0c-1.02505,0 -2.0501,0 -3.07516,0c0,0 -1.10307,-0.40508 -2.0501,0c-1.33931,0.57287 -1.86942,2.63178 -4.10021,3.17559c-1.99523,0.4864 -2.35035,0.31004 -3.07516,1.05853c-0.72481,0.74849 -3.07516,0 -3.07516,0c-1.02505,0 -2.0501,0 -3.07516,0c-1.02505,0 -1.02505,0 -3.07516,0c-1.02505,0 -2.0501,0 -2.0501,0c-2.0501,-1.05853 -2.95065,-2.6394 -6.15031,-3.17559c-1.01179,-0.16956 -2.0501,0 -3.07516,0c-2.0501,0 -3.07516,0 -4.10021,0c-3.07516,0 -5.15172,-0.33912 -7.17536,0c-3.19966,0.53619 -4.10021,2.11706 -7.17536,2.11706c-1.02505,0 -5.12526,0 -7.17536,0c-2.0501,0 -3.07516,0 -6.15031,0c-2.0501,0 -4.10021,0 -6.15031,0c-2.0501,0 -4.10021,0 -5.12526,0c-1.02505,0 -2.0501,0 -3.07516,0c-1.02505,0 -1.02505,1.05853 -2.0501,1.05853c0,0 -0.4703,-0.32451 -1.02505,1.05853c-0.39228,0.97795 -0.63277,1.13911 -1.02505,2.11706c-0.55476,1.38304 -1.3253,0.31004 -2.0501,1.05853c-0.72481,0.74849 0,1.05853 -1.02505,1.05853c-1.02505,0 -2.0501,0 -3.07516,0c-1.02505,0 -3.3754,0.74849 -4.10021,0c-0.72481,-0.74849 -1.02505,-1.05853 -2.0501,-1.05853c-2.0501,0 -3.07516,0 -5.12526,0c-1.02505,0 -2.07751,-0.2432 -3.07516,0c-2.23079,0.54381 -2.89447,1.57325 -5.12526,2.11706c-0.99765,0.2432 -2.0501,0 -4.10021,0c-2.0501,0 -4.10021,0 -5.12526,0c0,0 -1.02505,0 -2.0501,1.05853c-1.02505,1.05853 -2.5204,0.73402 -3.07516,2.11706c-0.39228,0.97795 -1.73584,2.60272 -3.07516,3.17559c-1.89407,0.81016 -2.89447,0.51472 -5.12526,1.05853c-0.99765,0.2432 -2.0501,0 -3.07516,0c-1.02508,0 -2.76096,-0.48566 -4.10024,-1.05853c-1.89404,-0.81016 -3.3754,-0.31004 -4.10021,-1.05853c-0.72481,-0.74849 0,-1.05853 -1.02505,-2.11706c-1.02505,-1.05853 -2.5204,-0.73402 -3.07516,-2.11706c-0.39228,-0.97795 -0.30025,-0.31004 -1.02505,-1.05853c-0.72481,-0.74849 0,-2.11706 -1.02505,-2.11706c0,0 -1.49535,-0.73402 -2.0501,-2.11706c-0.39228,-0.97795 0.18065,-0.54381 -2.0501,0c-1.99527,0.4864 -1.89914,0.18323 -3.07516,1.05853c-1.85944,1.38398 -2.0501,1.05853 -3.07516,1.05853c0,0 0,1.05853 -2.0501,2.11706c-2.0501,1.05853 -2.8945,2.63178 -5.12526,3.17559c-0.99762,0.2432 -2.0501,1.05853 -3.07516,2.11706c-1.02505,1.05853 -2.10494,0.57213 -4.10021,1.05853c-2.23076,0.54381 -1.73587,1.54419 -3.07516,2.11706c-0.94703,0.40508 -2.35035,-0.74849 -3.07516,0c-0.72481,0.74849 -0.05484,1.63066 -2.0501,2.11706c-2.23076,0.54381 -2.76093,3.66125 -4.10021,4.23412c-1.89404,0.81016 -2.12812,0.65345 -3.07516,1.05853c-1.33928,0.57287 -2.0501,1.05853 -3.07516,0c-1.02505,-1.05853 -2.76093,-1.54419 -4.10021,-2.11706c-0.94703,-0.40508 -1.3253,-0.31004 -2.0501,-1.05853c-0.72481,-0.74849 -1.02505,-1.05853 -2.0501,-2.11706c0,0 -1.02505,0 -2.0501,0c-2.0501,0 -2.0501,0 -3.07516,-1.05853c-1.02505,-1.05853 -1.3253,-2.4271 -2.0501,-3.17559c-0.72481,-0.74849 -1.02505,0 -1.02505,0c-1.02505,0 -2.0501,0 -4.10021,1.05853c0,0 -0.15607,1.86869 -2.0501,1.05853c-1.33928,-0.57287 -2.0501,-1.05853 -2.0501,-2.11706c0,0 -1.02505,0 -2.0501,0c-2.0501,0 -2.0501,0 -4.10021,0c-2.0501,0 -6.17775,-0.81533 -7.17536,-1.05853c-2.23076,-0.54381 -3.07516,-2.11706 -3.07516,-2.11706c-1.02505,0 -2.0501,0 -3.07516,0c-1.02505,0 -1.86945,1.57325 -4.10021,2.11706c-0.99762,0.2432 -3.21148,0.60284 -7.17536,2.11706c-2.14971,0.8212 -6.15031,3.17559 -6.15031,3.17559c-4.10021,0 -5.12526,0 -6.15031,0c-1.02505,0 -2.0501,-1.05853 -5.12526,-2.11706c-3.07516,-1.05853 -4.10021,-2.11706 -5.12526,-2.11706c0,0 -3.07516,0 -4.10021,0c-1.02505,0 -4.10021,0 -6.15031,0c-1.02505,0 -4.10021,1.05853 -5.12526,1.05853c-5.12526,0 -8.20041,0 -10.25052,-2.11706c-2.0501,-2.11706 -3.15317,-2.77051 -4.10021,-3.17559c-1.33928,-0.57287 -1.3253,-1.36857 -2.0501,-2.11706c-0.72481,-0.74849 -1.02505,0 -2.0501,0c-1.02505,0 -2.07754,-0.2432 -3.07516,0c-2.23076,0.54381 -4.10021,1.05853 -5.12526,1.05853c-1.02505,0 -2.0501,0 -3.07516,0c0,0 -0.71082,-0.48566 -2.0501,-1.05853c-1.89404,-0.81016 -5.12526,-2.11706 -6.15031,-2.11706c0,0 0,0 -2.0501,0c-2.0501,0 -6.15031,0 -8.20041,0c-4.10021,0 -6.15031,0 -6.15031,0c-2.0501,0 -4.10021,0 -6.15031,0c-2.0501,0 -1.65783,0.08058 -2.0501,1.05853c-0.55476,1.38304 -3.15317,2.77051 -4.10021,3.17559c-1.33928,0.57287 -2.0501,1.05853 -3.07516,1.05853c-1.02505,0 -2.0501,0 -5.12526,0c-1.02505,0 -3.07516,0 -8.20041,0c-1.02505,0 -1.02505,-1.05853 -3.07516,-1.05853c-1.02505,0 -3.07516,0 -4.10021,0c-1.02505,0 -1.18112,-0.24837 -3.07516,-1.05853c-1.33928,-0.57287 -4.10021,-2.11706 -6.15031,-3.17559c0,0 -4.10021,-2.11706 -4.10021,-2.11706c-1.02505,-1.05853 -1.3253,-1.36857 -2.0501,-2.11706c-0.72481,-0.74849 -2.0501,0 -2.0501,0c0,1.05853 -1.02505,1.05853 -2.0501,1.05853c-2.0501,0 -8.20041,0 -10.25052,0c-3.07516,0 -4.10021,-1.05853 -5.12526,-1.05853c-3.07516,0 -5.12526,0 -7.17536,0c-1.02505,0 -3.08839,-0.16956 -4.10021,0c-3.19964,0.53619 -3.91954,1.57325 -6.15031,2.11706c-0.99763,0.2432 -1.32528,0.31004 -2.0501,1.05853c-0.72482,0.74849 -4.10021,0 -7.17536,0c-1.02505,0 -5.12526,0 -7.17536,-1.05853c-2.0501,-1.05853 -3.07516,-2.11706 -4.10021,-2.11706c-1.02505,0 -2.10494,-0.4864 -4.10021,0c-2.23077,0.54381 -3.10257,1.87386 -4.10021,2.11706c-2.23077,0.54381 -3.30924,0.90181 -6.15031,2.11706c-1.3393,0.57287 -4.11344,1.9475 -5.12526,2.11706c-3.19964,0.53619 -3.07516,1.05853 -7.17536,1.05853c-3.07516,0 -7.17536,0 -9.22547,0c-3.07516,0 -3.07516,0 -6.15031,0c-1.02505,0 -5.12526,0 -5.12526,0c-4.10021,-1.05853 -5.96964,-2.63178 -8.20041,-3.17559c-0.99763,-0.2432 -3.07516,0 -4.10021,0c0,0 -1.02505,0 -4.10021,-1.05853c0,0 -1.02505,0 -2.0501,0c-2.0501,0 -4.10021,0 -6.15031,0c-3.07516,0 -5.12526,0 -8.20041,-1.05853c-3.07516,-1.05853 -7.17536,-2.11706 -8.20041,-2.11706c0,0 -1.02505,0 -3.07516,0c-1.02505,0 -1.10308,-0.40508 -2.0501,0c-1.3393,0.57287 -1.92562,1.58087 -5.12526,2.11706c-2.02363,0.33911 -4.10021,0 -5.12526,0c-3.07516,0 -3.07516,-1.05853 -5.12526,-1.05853c-1.02505,0 -2.0501,-1.05853 -3.07516,-1.05853c-1.02505,0 -2.08981,0.54986 -5.12526,1.05853c-3.19964,0.53619 -3.78596,1.54419 -5.12526,2.11706c-2.84107,1.21525 -6.15031,1.05853 -7.17536,1.05853c-2.0501,0 -3.07516,0 -4.10021,0c-1.02505,0 -2.0501,0 -4.10021,0c-5.12526,0 -6.15031,0 -7.17536,0c-1.02505,0 -1.02505,0 -2.0501,0c-1.02505,0 -3.07516,-1.05853 -3.07516,-1.05853c-1.02505,0 -1.73586,-1.54419 -3.07516,-2.11706c-0.94702,-0.40508 -0.84439,-0.51472 -3.07516,-1.05853c-0.99763,-0.2432 -1.32528,-0.31004 -2.0501,-1.05853c-0.72482,-0.74849 -3.10258,0.2432 -4.10021,0c-2.23077,-0.54381 -4.10021,-1.05853 -5.12526,-1.05853c-1.02505,0 -2.0501,0 -3.07516,0c0,0 -1.10308,0.65345 -2.0501,1.05853c-1.3393,0.57287 -2.0501,1.05853 -2.0501,1.05853c0,1.05853 -0.30023,1.36857 -1.02505,2.11706c-0.72482,0.74849 -0.30023,1.36857 -1.02505,2.11706c-0.72482,0.74849 -1.02505,0 -2.0501,0l0,1.05853l0,0" id="svg_4" stroke="#000" fill="#111111"/>
  <path d="m32.43052,19.03962c-0.54054,0 -1.08108,0 -1.08108,0.54054c0,0.54054 0,1.08108 0.54054,1.62161l0.54054,0l0,0" id="svg_5" stroke="#000" fill="none"/>
 </g>

</svg>