<!DOCTYPE svg PUBLIC "-//W3C//DTD SVG 1.1//EN" "http://www.w3.org/Graphics/SVG/1.1/DTD/svg11.dtd">
<!-- Uploaded to: SVG Repo, www.svgrepo.com, Transformed by: SVG Repo Mixer Tools -->
<svg xmlns:dc="http://purl.org/dc/elements/1.1/" xmlns:cc="http://creativecommons.org/ns#" xmlns:rdf="http://www.w3.org/1999/02/22-rdf-syntax-ns#" xmlns:svg="http://www.w3.org/2000/svg" xmlns="http://www.w3.org/2000/svg" version="1.1" width="800px" height="800px" viewBox="0 0 14.00 14.00" id="svg2" fill="#000000" transform="rotate(0)matrix(1, 0, 0, 1, 0, 0)" stroke="#000000" stroke-width="0.00014">
<g id="SVGRepo_bgCarrier" stroke-width="0"/>
<g id="SVGRepo_tracerCarrier" stroke-linecap="round" stroke-linejoin="round" stroke="#daaaee" stroke-width="1.5400000000000003"> <metadata id="metadata8"> <rdf:rdf> <cc:work rdf:about=""> <dc:format>image/svg+xml</dc:format> <dc:type rdf:resource="http://purl.org/dc/dcmitype/StillImage"/> <dc:title/> </cc:work> </rdf:rdf> </metadata> <defs id="defs6"/> <rect width="14" height="14" x="0" y="0" id="canvas" style="fill:none;stroke:none;visibility:hidden"/> <path d="M 0,1 0,4 14,4 14,1 12,1 12,3 10,3 10,1 8,1 8,3 6,3 6,1 4,1 4,3 2,3 2,1 0,1 z m 0,4 0,8 2.5,0 C 2.5,10 3.487647,6.5 7,6.5 10.404489,6.473034 11.5,10 11.5,13 L 14,13 14,5 0,5 z M 7,8 C 5,8 4,10 4,13 l 6,0 C 10,10 9,8 7,8 z" id="city-gate" style="fill:#404040;fill-opacity:1;stroke:none"/> </g>
<g id="SVGRepo_iconCarrier"> <metadata id="metadata8"> <rdf:rdf> <cc:work rdf:about=""> <dc:format>image/svg+xml</dc:format> <dc:type rdf:resource="http://purl.org/dc/dcmitype/StillImage"/> <dc:title/> </cc:work> </rdf:rdf> </metadata> <defs id="defs6"/> <rect width="14" height="14" x="0" y="0" id="canvas" style="fill:none;stroke:none;visibility:hidden"/> <path d="M 0,1 0,4 14,4 14,1 12,1 12,3 10,3 10,1 8,1 8,3 6,3 6,1 4,1 4,3 2,3 2,1 0,1 z m 0,4 0,8 2.5,0 C 2.5,10 3.487647,6.5 7,6.5 10.404489,6.473034 11.5,10 11.5,13 L 14,13 14,5 0,5 z M 7,8 C 5,8 4,10 4,13 l 6,0 C 10,10 9,8 7,8 z" id="city-gate" style="fill:#404040;fill-opacity:1;stroke:none"/> </g>
</svg>